<?xml version="1.0" encoding="UTF-8" standalone="no"?>
<!-- Created with Inkscape (http://www.inkscape.org/) -->

<svg
   width="512"
   height="512"
   id="svg2"
   version="1.1"
   inkscape:version="1.3.2 (091e20e, 2023-11-25, custom)"
   sodipodi:docname="icon_scalable-sum-grey.svg"
   inkscape:export-filename="/home/gbraad/Projects/html5-google-authenticator/img/icon_152.png"
   inkscape:export-xdpi="26.929094"
   inkscape:export-ydpi="26.929094"
   xmlns:inkscape="http://www.inkscape.org/namespaces/inkscape"
   xmlns:sodipodi="http://sodipodi.sourceforge.net/DTD/sodipodi-0.dtd"
   xmlns="http://www.w3.org/2000/svg"
   xmlns:svg="http://www.w3.org/2000/svg"
   xmlns:rdf="http://www.w3.org/1999/02/22-rdf-syntax-ns#"
   xmlns:cc="http://creativecommons.org/ns#"
   xmlns:dc="http://purl.org/dc/elements/1.1/">
  <defs
     id="defs4" />
  <sodipodi:namedview
     id="base"
     pagecolor="#ffffff"
     bordercolor="#666666"
     borderopacity="1.0"
     inkscape:pageopacity="0.0"
     inkscape:pageshadow="2"
     inkscape:zoom="1"
     inkscape:cx="34.5"
     inkscape:cy="404.5"
     inkscape:document-units="px"
     inkscape:current-layer="layer1"
     showgrid="false"
     units="px"
     inkscape:window-width="1920"
     inkscape:window-height="1057"
     inkscape:window-x="1072"
     inkscape:window-y="-8"
     inkscape:window-maximized="1"
     inkscape:showpageshadow="2"
     inkscape:pagecheckerboard="0"
     inkscape:deskcolor="#d1d1d1" />
  <metadata
     id="metadata7">
    <rdf:RDF>
      <cc:Work
         rdf:about="">
        <dc:format>image/svg+xml</dc:format>
        <dc:type
           rdf:resource="http://purl.org/dc/dcmitype/StillImage" />
      </cc:Work>
    </rdf:RDF>
  </metadata>
  <g
     inkscape:label="Layer 1"
     inkscape:groupmode="layer"
     id="layer1"
     transform="translate(0,-540.36222)">
    <path
       d="m 148.54492,609.23527 c -4.96887,-0.0843 -11.89872,1.56306 -22.01367,5.74609 -53.94608,22.30944 7.17385,31.69358 -34.12891,72.94922 -41.301918,41.2556 -50.619042,-19.87405 -72.990231,34.04687 -22.370957,53.92139 27.480429,17.3329 27.447266,75.71094 -0.03333,58.37793 -49.84215,21.74284 -27.533203,75.68945 22.309121,53.94685 31.692215,-7.17623 72.947268,34.12696 41.25605,41.3023 -19.873441,50.61393 34.04687,72.98437 8.42566,3.49631 14.64171,5.23075 19.35547,5.66602 25.45548,2.3166 7.10757,-33.14176 56.36328,-33.11328 58.37753,0.0331 21.73519,49.84269 75.68164,27.5332 53.94629,-22.3103 -7.17599,-31.69277 34.12696,-72.94922 41.30183,-41.25575 50.61912,19.88026 72.99023,-34.04101 8.65244,-20.85547 6.49422,-28.17353 0.60742,-32.69141 l -77.60156,-43.11328 78.40039,-43.55664 c 5.28827,-4.57031 6.91756,-12.11669 -1.32031,-32.03711 -22.30917,-53.9467 -31.69211,7.16837 -72.94727,-34.13477 -41.25588,-41.30334 19.8718,-50.61333 -34.04883,-72.98437 -53.92085,-22.37111 -17.34047,27.48032 -75.71679,27.44726 -47.4318,-0.027 -32.13424,-32.91383 -53.66602,-33.27929 z m 52.8086,84.08593 c 3.41619,-0.0362 6.83519,0.0983 10.24023,0.40821 27.24067,2.47917 53.29376,16.15693 70.80273,37.17187 17.50884,21.0149 26.25845,49.10877 23.7793,76.34961 -2.47916,27.24069 -16.15709,53.29381 -37.17187,70.80274 -21.01483,17.50902 -49.10904,26.25858 -76.34961,23.77929 -27.24052,-2.47884 -53.29203,-16.15698 -70.80078,-37.17187 -17.50904,-21.01481 -26.25846,-49.1069 -23.7793,-76.34766 2.47886,-27.24075 16.15708,-53.29382 37.17187,-70.80273 18.38787,-15.32049 42.19402,-23.936 66.10743,-24.18946 z m 0.77148,10.46094 c -51.91359,-1.3e-4 -93.99818,42.08446 -93.99805,93.99805 9.5e-4,51.91282 42.08522,93.99622 93.99805,93.99609 51.91283,1.3e-4 93.9971,-42.08327 93.99805,-93.99609 1.3e-4,-51.91359 -42.08446,-93.99818 -93.99805,-93.99805 z"
       style="display:inline;overflow:visible;fill:#808080;stroke-width:3.2;marker:none;enable-background:accumulate"
       id="path20" />
    <path
       d="m 498.45189,702.41578 -180.75925,95.36426 180.75925,95.36259 z"
       style="fill:#808080;stroke:none;stroke-width:1;stroke-dasharray:none"
       id="path19" />
  </g>
</svg>
